<svg width="32" height="32" viewBox="0 0 32 32" fill="none" xmlns="http://www.w3.org/2000/svg">
<path d="M23.1688 0H8.8306C3.96141 0 0 3.9616 0 8.83079V23.169C0 28.0384 3.96141 31.9998 8.8306 31.9998H23.1688C28.0384 31.9998 31.9998 28.0382 31.9998 23.169V8.83079C32 3.9616 28.0384 0 23.1688 0ZM29.1608 23.169C29.1608 26.4729 26.4729 29.1606 23.169 29.1606H8.8306C5.52693 29.1608 2.83918 26.4729 2.83918 23.169V8.83079C2.83918 5.52712 5.52693 2.83918 8.8306 2.83918H23.1688C26.4727 2.83918 29.1606 5.52712 29.1606 8.83079V23.169H29.1608Z" fill="white"/>
<path d="M16.0001 7.75464C11.4534 7.75464 7.75452 11.4535 7.75452 16.0002C7.75452 20.5466 11.4534 24.2453 16.0001 24.2453C20.5467 24.2453 24.2456 20.5466 24.2456 16.0002C24.2456 11.4535 20.5467 7.75464 16.0001 7.75464ZM16.0001 21.406C13.0191 21.406 10.5937 18.9809 10.5937 16C10.5937 13.0189 13.0189 10.5936 16.0001 10.5936C18.9812 10.5936 21.4064 13.0189 21.4064 16C21.4064 18.9809 18.981 21.406 16.0001 21.406Z" fill="white"/>
<path d="M24.5912 5.34741C24.0441 5.34741 23.5068 5.56887 23.1205 5.95689C22.7323 6.34302 22.5091 6.88057 22.5091 7.42948C22.5091 7.97668 22.7324 8.51404 23.1205 8.90206C23.5066 9.28819 24.0441 9.51154 24.5912 9.51154C25.1401 9.51154 25.6757 9.28819 26.0637 8.90206C26.4518 8.51404 26.6732 7.97649 26.6732 7.42948C26.6732 6.88057 26.4518 6.34302 26.0637 5.95689C25.6776 5.56887 25.1401 5.34741 24.5912 5.34741Z" fill="white"/>
</svg>
