<svg width="23" height="23" viewBox="0 0 23 23" fill="none" xmlns="http://www.w3.org/2000/svg">
<path d="M3.5954 19.556C3.63677 16.9059 4.46239 14.4962 5.9303 12.7515C7.38968 11.0174 9.3675 10.0625 11.5 10.0625C13.6326 10.0625 15.6104 11.0174 17.0698 12.7515C18.5363 14.4943 19.3614 16.9006 19.4045 19.5475C18.5752 19.9629 15.1436 21.5625 11.5 21.5625C7.56002 21.5625 4.36442 19.9723 3.5954 19.556Z" fill="white"/>
<path d="M11.5 9.34375C9.31675 9.34375 7.54688 7.57388 7.54688 5.39062C7.54688 3.20737 9.31675 1.4375 11.5 1.4375C13.6833 1.4375 15.4531 3.20737 15.4531 5.39062C15.4531 7.57388 13.6833 9.34375 11.5 9.34375Z" fill="white"/>
</svg>
