<svg width="28" height="28" viewBox="0 0 28 28" fill="none" xmlns="http://www.w3.org/2000/svg">
<g clip-path="url(#clip0)">
<path d="M4.10057 4.10152C6.74481 1.45722 10.2605 0.00100708 14.0001 0.00100708C17.7397 0.00100708 21.2552 1.45722 23.8995 4.10152C26.5437 6.74571 28 10.2614 28 14.0009C28 17.7404 26.5437 21.2562 23.8995 23.9004C21.2552 26.5447 17.7395 28.0009 14 28.0009C10.2604 28.0009 6.74471 26.5446 4.10052 23.9004C1.45627 21.2562 0 17.7404 0 14.0009C0 10.2614 1.45632 6.74571 4.10057 4.10152ZM14.0001 26.3142C20.7896 26.3142 26.3133 20.7905 26.3133 14.0009C26.3133 7.21138 20.7896 1.68768 14.0001 1.68768C7.21059 1.68768 1.68683 7.21143 1.68683 14.0009C1.68683 20.7904 7.21048 26.3142 14.0001 26.3142Z" fill="black"/>
<path d="M15.0994 14.0001L19.7719 9.32729C20.076 9.02334 20.076 8.53191 19.7719 8.22796C19.468 7.92401 18.9766 7.92401 18.6726 8.22796L13.9999 12.9008L9.32737 8.22796C9.02329 7.92401 8.532 7.92401 8.22806 8.22796C7.92398 8.53191 7.92398 9.02334 8.22806 9.32729L12.9006 14.0001L8.22806 18.6729C7.92398 18.9768 7.92398 19.4683 8.22806 19.7722C8.37953 19.9238 8.5787 20 8.77772 20C8.97674 20 9.17576 19.9238 9.32737 19.7722L13.9999 15.0994L18.6726 19.7722C18.8242 19.9238 19.0233 20 19.2223 20C19.4213 20 19.6203 19.9238 19.7719 19.7722C20.076 19.4683 20.076 18.9768 19.7719 18.6729L15.0994 14.0001Z" fill="black"/>
</g>
<defs>
<clipPath id="clip0">
<rect width="28" height="28" fill="white" transform="matrix(-1 0 0 1 28 0)"/>
</clipPath>
</defs>
</svg>
